<svg xmlns="http://www.w3.org/2000/svg" xmlns:xlink="http://www.w3.org/1999/xlink"><defs><style>
    .sprite-symbol-usage {display: none;}
    .sprite-symbol-usage:target {display: inline;}
  </style><symbol viewBox="0 0 14 14" id="icon-download"><g clip-path="url(#icon-download_a)"><path fill-rule="evenodd" d="M7 0a.5.5 0 0 1 .5.5v7.648l2.12-2.473a.5.5 0 1 1 .76.65l-3 3.5a.5.5 0 0 1-.76 0l-3-3.5a.5.5 0 0 1 .76-.65L6.5 8.148V.5A.5.5 0 0 1 7 0M.5 10a.5.5 0 0 1 .5.5v1A1.5 1.5 0 0 0 2.5 13h9a1.5 1.5 0 0 0 1.5-1.5v-1a.5.5 0 0 1 1 0v1a2.5 2.5 0 0 1-2.5 2.5h-9A2.5 2.5 0 0 1 0 11.5v-1a.5.5 0 0 1 .5-.5" clip-rule="evenodd" /></g><defs></defs></symbol><clipPath id="icon-download_a"><path d="M0 0h14v14H0z" /></clipPath><symbol viewBox="0 0 14 14" id="icon-email"><g clip-path="url(#icon-email_a)"><path fill-rule="evenodd" d="M1.5 2.25a.5.5 0 0 0-.5.5v.032l5.677 4.792a.5.5 0 0 0 .646 0L13 2.782V2.75a.5.5 0 0 0-.5-.5zm12.5.761V2.75a1.5 1.5 0 0 0-1.5-1.5h-11A1.5 1.5 0 0 0 0 2.75v8.5a1.5 1.5 0 0 0 1.5 1.5h11a1.5 1.5 0 0 0 1.5-1.5V3.011m-1 1.08L7.968 8.338a1.5 1.5 0 0 1-1.935 0L1 4.09v7.159a.5.5 0 0 0 .5.5h11a.5.5 0 0 0 .5-.5z" clip-rule="evenodd" /></g><defs></defs></symbol><clipPath id="icon-email_a"><path d="M0 0h14v14H0z" /></clipPath><symbol viewBox="0 0 14 14" id="icon-script"><g clip-path="url(#icon-script_a)"><path fill-rule="evenodd" d="M4.354 3.146a.5.5 0 0 1 0 .708L1.207 7l3.147 3.146a.5.5 0 0 1-.708.708l-3.5-3.5a.5.5 0 0 1 0-.708l3.5-3.5a.5.5 0 0 1 .708 0m5.292 0a.5.5 0 0 1 .708 0l3.5 3.5a.5.5 0 0 1 0 .708l-3.5 3.5a.5.5 0 0 1-.708-.708L12.793 7 9.646 3.854a.5.5 0 0 1 0-.708" clip-rule="evenodd" /></g><defs></defs></symbol><clipPath id="icon-script_a"><path d="M0 0h14v14H0z" /></clipPath></defs><use id="icon-download-usage" xlink:href="#icon-download" class="sprite-symbol-usage" /><use id="icon-email-usage" xlink:href="#icon-email" class="sprite-symbol-usage" /><use id="icon-script-usage" xlink:href="#icon-script" class="sprite-symbol-usage" /></svg>