<svg width="296" height="294" viewBox="0 0 296 294" fill="none" xmlns="http://www.w3.org/2000/svg">
<path d="M229.262 197.212L89.8945 86.8073M197.223 87.622L83.6171 177.323" stroke="#4CFF9E" stroke-opacity="0.1"/>
<ellipse cx="2.5" cy="2.5" rx="2.5" ry="2.5" transform="matrix(0.830306 0.557308 0.557308 -0.830306 80.171 177.524)" fill="#4CFF9E"/>
<ellipse cx="2.5" cy="2.5" rx="2.5" ry="2.5" transform="matrix(0.830306 0.557308 0.557308 -0.830306 85.5 87.02)" fill="#4CFF9E"/>
<ellipse cx="2.5" cy="2.5" rx="2.5" ry="2.5" transform="matrix(0.830306 0.557308 0.557308 -0.830306 193.418 88.5636)" fill="#4CFF9E"/>
<ellipse cx="2.5" cy="2.5" rx="2.5" ry="2.5" transform="matrix(0.830306 0.557308 0.557308 -0.830306 120.765 115.293)" fill="#4CFF9E"/>
<ellipse cx="2.5" cy="2.5" rx="2.5" ry="2.5" transform="matrix(0.830306 0.557308 0.557308 -0.830306 225.686 197.484)" fill="#4CFF9E"/>
<path d="M124.569 114.351L197.223 87.622L88.994 86.4694M124.569 114.351L83.8373 177.772L88.994 86.4694M124.569 114.351L88.994 86.4694" stroke="#4CFF9E" stroke-opacity="0.3" stroke-linejoin="round"/>
</svg>
