<svg width="32" height="32" viewBox="0 0 32 32" fill="none" xmlns="http://www.w3.org/2000/svg">
<path d="M27.261 23.5138L16.4738 29.6164V24.8645L23.195 21.1662L27.261 23.5138ZM28 22.8456V10.0854L24.0542 12.3659V20.5686L28 22.8456ZM4.73895 23.5138L15.5262 29.6164V24.8645L8.80141 21.1662L4.73895 23.5138ZM4 22.8456V10.0854L7.94579 12.3659V20.5686L4 22.8456ZM4.46317 9.2581L15.5262 3V7.59281L8.43724 11.4926L8.38067 11.5245L4.46317 9.2581ZM27.5368 9.2581L16.4738 3V7.59281L23.5628 11.4891L23.6193 11.5209L27.5368 9.2581Z" fill="#8ED6FB"/>
<path d="M15.5263 23.7826L8.89337 20.1338V12.9104L15.5263 16.7395V23.7826ZM16.4738 23.7826L23.1067 20.1373V12.9104L16.4738 16.7395V23.7826ZM9.3424 12.076L16 8.41663L22.6577 12.076L16 15.9193L9.3424 12.076Z" fill="#1C78C0"/>
</svg>
