<svg width="32" height="32" viewBox="0 0 32 32" fill="none" xmlns="http://www.w3.org/2000/svg">
<path d="M6.18413 26.9978L4 2.5H28L25.8135 26.9939L15.9853 29.7186L6.18413 26.9978Z" fill="#264DE4"/>
<path d="M23.9417 25.4341L25.8102 4.50293H16V27.6359L23.9417 25.4341Z" fill="#2965F1"/>
<path d="M9.00713 13.589L9.27639 16.5935H16V13.589H9.00713ZM8.73915 10.5123H16V7.50769H8.466L8.73915 10.5123ZM16 21.3921L15.9868 21.3956L12.6406 20.4921L12.4267 18.0958H9.41057L9.83156 22.8134L15.9862 24.522L16 24.5181V21.3921Z" fill="#EBEBEB"/>
<path d="M15.9897 13.589V16.5935H19.6894L19.3407 20.4902L15.9897 21.3946V24.5205L22.1491 22.8134L22.1943 22.3057L22.9003 14.3958L22.9737 13.589L23.5161 7.50769H15.9897V10.5123H20.2234L19.9499 13.589H15.9897Z" fill="white"/>
</svg>
