<svg width="32" height="32" viewBox="0 0 32 32" fill="none" xmlns="http://www.w3.org/2000/svg">
<path d="M29.4719 14.7528L17.2469 2.52816C16.543 1.82395 15.4012 1.82395 14.6967 2.52816L12.1584 5.06712L15.3784 8.28714C16.1268 8.03422 16.9848 8.20395 17.5812 8.8006C18.1812 9.4009 18.3494 10.2663 18.0901 11.0175L21.1939 14.1211C21.945 13.8621 22.811 14.0297 23.4107 14.6303C24.2487 15.4683 24.2487 16.8261 23.4107 17.6647C22.5721 18.503 21.2143 18.503 20.3754 17.6647C19.7453 17.0339 19.5893 16.1076 19.9089 15.3311L17.0141 12.4366V20.0537C17.2183 20.1549 17.4111 20.2896 17.5812 20.4596C18.4192 21.2976 18.4192 22.6555 17.5812 23.4944C16.7432 24.3321 15.3845 24.3321 14.5471 23.4944C13.7091 22.6552 13.7091 21.2973 14.5471 20.4596C14.7543 20.2527 14.9941 20.0961 15.2501 19.9913V12.3031C14.9941 12.1983 14.7549 12.0432 14.5471 11.8347C13.9124 11.2003 13.7597 10.2685 14.0852 9.48897L10.9109 6.31405L2.52815 14.6961C1.82395 15.4009 1.82395 16.5427 2.52815 17.2469L14.7537 29.4718C15.4576 30.1761 16.5991 30.1761 17.3039 29.4718L29.4719 17.3036C30.1761 16.5994 30.1761 15.457 29.4719 14.7528Z" fill="#F05133"/>
</svg>
