<svg width="32" height="32" viewBox="0 0 32 32" fill="none" xmlns="http://www.w3.org/2000/svg">
<path d="M6.18182 26.8913L4 2.41235H28L25.8182 26.8913L15.9734 29.6585" fill="#E34F26"/>
<path d="M16.0266 27.5299L23.9557 25.3481L25.8182 4.38135H16.0266" fill="#EF652A"/>
<path d="M16.0266 13.4811H12.0355L11.7694 10.3946H16.0266V7.41455H8.47009L9.26832 16.5143H16.0266V13.4811ZM15.9734 21.3037L12.6209 20.399L12.408 18.0044H9.42796L9.80047 22.7405L15.9734 24.4434V21.3037Z" fill="#EBEBEB"/>
<path d="M15.9734 13.4811V16.5143H19.6984L19.3259 20.399L15.9734 21.3037V24.4434L22.1463 22.7405L22.9978 13.4811H15.9734ZM15.9734 7.41455V10.3946H23.2639L23.5299 7.41455H15.9734Z" fill="white"/>
</svg>
