<svg width="32" height="32" viewBox="0 0 32 32" fill="none" xmlns="http://www.w3.org/2000/svg">
<path d="M17.59 24.8542H27.395C27.7079 24.8542 28.0074 24.7442 28.2783 24.5892C28.5493 24.4341 28.8286 24.2394 28.985 23.9708C29.1414 23.7022 29.2501 23.3975 29.25 23.0874C29.2499 22.7773 29.1416 22.4727 28.985 22.2043L22.36 10.8092C22.2036 10.5406 22.0126 10.3459 21.7417 10.1908C21.4708 10.0358 21.0828 9.92581 20.77 9.92581C20.4572 9.92581 20.1576 10.0358 19.8867 10.1908C19.6158 10.3459 19.4247 10.5406 19.2683 10.8092L17.59 13.7242L14.2333 8.07063C14.0768 7.80213 13.886 7.51919 13.615 7.36419C13.344 7.20913 13.0446 7.1875 12.7317 7.1875C12.4188 7.1875 12.1193 7.20913 11.8483 7.36419C11.5774 7.51919 11.2982 7.80213 11.1417 8.07063L2.92667 22.2043C2.77005 22.4727 2.75014 22.7773 2.75 23.0874C2.74986 23.3975 2.77029 23.7022 2.92667 23.9708C3.08305 24.2394 3.36237 24.4341 3.63333 24.5892C3.9043 24.7442 4.20377 24.8542 4.51667 24.8542H10.7C13.1501 24.8542 14.9334 23.7551 16.1767 21.6742L19.18 16.4625L20.77 13.7242L25.6283 22.0275H19.18L17.59 24.8542ZM10.6117 22.0275H6.28331L12.7317 10.8975L16 16.4625L13.8351 20.2365C13.0094 21.5867 12.0681 22.0275 10.6117 22.0275Z" fill="#00DC82"/>
</svg>
