<svg width="14" height="14" viewBox="0 0 14 14" fill="none" xmlns="http://www.w3.org/2000/svg">
<g clip-path="url(#clip0_2074_1395)">
<path fill-rule="evenodd" clip-rule="evenodd" d="M7 0C7.27614 0 7.5 0.223858 7.5 0.5V8.14837L9.62037 5.6746C9.80008 5.46494 10.1157 5.44066 10.3254 5.62037C10.5351 5.80008 10.5593 6.11573 10.3796 6.3254L7.37963 9.8254C7.28464 9.93622 7.14596 10 7 10C6.85404 10 6.71536 9.93622 6.62037 9.8254L3.62037 6.3254C3.44066 6.11573 3.46494 5.80008 3.6746 5.62037C3.88427 5.44066 4.19992 5.46494 4.37963 5.6746L6.5 8.14837V0.5C6.5 0.223858 6.72386 0 7 0ZM0.5 10C0.776142 10 1 10.2239 1 10.5V11.5C1 11.8978 1.15804 12.2794 1.43934 12.5607C1.72064 12.842 2.10218 13 2.5 13H11.5C11.8978 13 12.2794 12.842 12.5607 12.5607C12.842 12.2794 13 11.8978 13 11.5V10.5C13 10.2239 13.2239 10 13.5 10C13.7761 10 14 10.2239 14 10.5V11.5C14 12.163 13.7366 12.7989 13.2678 13.2678C12.7989 13.7366 12.163 14 11.5 14H2.5C1.83696 14 1.20107 13.7366 0.732233 13.2678C0.263392 12.7989 0 12.163 0 11.5V10.5C0 10.2239 0.223858 10 0.5 10Z" fill="black"/>
</g>
<defs>
<clipPath id="clip0_2074_1395">
<rect width="14" height="14" fill="white"/>
</clipPath>
</defs>
</svg>
