<svg width="14" height="14" viewBox="0 0 14 14" fill="none" xmlns="http://www.w3.org/2000/svg">
<g clip-path="url(#clip0_2001_1916)">
<path fill-rule="evenodd" clip-rule="evenodd" d="M1.50001 2.25C1.22387 2.25 1.00001 2.47386 1.00001 2.75V2.78235L6.67748 7.57353L6.67751 7.57356C6.76772 7.6497 6.88196 7.69147 7.00001 7.69147C7.11806 7.69147 7.2323 7.6497 7.32251 7.57356L7.32254 7.57353L13 2.78235V2.75C13 2.47386 12.7762 2.25 12.5 2.25H1.50001ZM14 3.01114V2.75C14 1.92157 13.3284 1.25 12.5 1.25H1.50001C0.671584 1.25 1.09076e-05 1.92157 1.09076e-05 2.75V3.01108C-3.63588e-06 3.01329 -3.63588e-06 3.0155 1.09076e-05 3.01771V11.25C1.09076e-05 12.0784 0.671584 12.75 1.50001 12.75H12.5C13.3284 12.75 14 12.0784 14 11.25V3.01765C14 3.01548 14 3.01331 14 3.01114ZM13 4.09084L7.96751 8.33774C7.9675 8.33775 7.96749 8.33776 7.96748 8.33777C7.69685 8.56617 7.35414 8.69147 7.00001 8.69147C6.64588 8.69147 6.30317 8.56617 6.03254 8.33777C6.03253 8.33776 6.03252 8.33775 6.03251 8.33774L1.00001 4.09084V11.25C1.00001 11.5261 1.22387 11.75 1.50001 11.75H12.5C12.7762 11.75 13 11.5261 13 11.25V4.09084Z" fill="black"/>
</g>
<defs>
<clipPath id="clip0_2001_1916">
<rect width="14" height="14" fill="white"/>
</clipPath>
</defs>
</svg>
