<svg width="14" height="14" viewBox="0 0 14 14" fill="none" xmlns="http://www.w3.org/2000/svg">
<g clip-path="url(#clip0_2013_39)">
<path fill-rule="evenodd" clip-rule="evenodd" d="M4.35355 3.14645C4.54882 3.34171 4.54882 3.65829 4.35355 3.85355L1.20711 7L4.35355 10.1464C4.54882 10.3417 4.54882 10.6583 4.35355 10.8536C4.15829 11.0488 3.84171 11.0488 3.64645 10.8536L0.146447 7.35355C-0.0488155 7.15829 -0.0488155 6.84171 0.146447 6.64645L3.64645 3.14645C3.84171 2.95118 4.15829 2.95118 4.35355 3.14645ZM9.64645 3.14645C9.84171 2.95118 10.1583 2.95118 10.3536 3.14645L13.8536 6.64645C14.0488 6.84171 14.0488 7.15829 13.8536 7.35355L10.3536 10.8536C10.1583 11.0488 9.84171 11.0488 9.64645 10.8536C9.45118 10.6583 9.45118 10.3417 9.64645 10.1464L12.7929 7L9.64645 3.85355C9.45118 3.65829 9.45118 3.34171 9.64645 3.14645Z" fill="black"/>
</g>
<defs>
<clipPath id="clip0_2013_39">
<rect width="14" height="14" fill="white"/>
</clipPath>
</defs>
</svg>
