<svg width="32" height="32" viewBox="0 0 32 32" fill="none" xmlns="http://www.w3.org/2000/svg">
<path d="M11.6804 27.7894C13.7909 27.7894 15.5037 26.0766 15.5037 23.9661V20.1428H11.6804C9.56996 20.1428 7.85712 21.8557 7.85712 23.9661C7.85712 26.0766 9.56996 27.7894 11.6804 27.7894Z" fill="#0ACF83"/>
<path d="M7.85712 15.8947C7.85712 13.5498 9.56996 11.6466 11.6804 11.6466H15.5037V20.1428H11.6804C9.56996 20.1428 7.85712 18.2397 7.85712 15.8947Z" fill="#A259FF"/>
<path d="M7.85712 7.82331C7.85712 5.71284 9.56996 4 11.6804 4H15.5037V11.6466H11.6804C9.56996 11.6466 7.85712 9.93377 7.85712 7.82331Z" fill="#F24E1E"/>
<path d="M15.5037 4H19.7518C22.0968 4 24 5.71284 24 7.82331C24 9.93377 22.0968 11.6466 19.7518 11.6466H15.5037V4Z" fill="#FF7262"/>
<path d="M24 15.8947C24 18.2397 22.0968 20.1428 19.7518 20.1428C17.4069 20.1428 15.5037 18.2397 15.5037 15.8947C15.5037 13.5498 17.4069 11.6466 19.7518 11.6466C22.0968 11.6466 24 13.5498 24 15.8947Z" fill="#1ABCFE"/>
</svg>
