<svg width="33" height="32" viewBox="0 0 33 32" fill="none" xmlns="http://www.w3.org/2000/svg">
<path fill-rule="evenodd" clip-rule="evenodd" d="M28.3971 22.0996L28.2808 22.4009C26.2999 26.2586 22.7895 28.6253 17.7826 28.7297C15.442 28.778 13.2118 28.1773 11.7549 27.5244C8.61088 26.1117 5.9663 23.492 4.52212 20.693C2.45041 16.6806 2.07678 11.099 6.38446 6.93018C6.45097 6.93018 5.8619 7.83416 5.92842 7.83416L5.80985 8.21993C2.70576 17.9382 12.2693 26.2667 21.566 25.3141C23.8002 25.0851 26.6493 23.8616 28.3971 22.0996Z" fill="#21609B"/>
<path fill-rule="evenodd" clip-rule="evenodd" d="M22.7714 18.0811C25.1103 18.097 27.5533 17.0039 29.0001 15.4692C27.7343 18.6821 24.0695 20.7471 19.1551 20.0904C15.0401 19.5398 11.1202 15.399 10.7165 11.2498C10.4212 8.23011 11.4736 6.42792 13.2078 4.2417C12.6051 5.38513 12.3799 6.26685 12.3238 6.82931C11.665 13.3614 17.5418 18.0467 22.7714 18.0811Z" fill="#21609B"/>
<path fill-rule="evenodd" clip-rule="evenodd" d="M28.7648 9.96787C28.4013 10.8019 26.3079 12.3768 25.3834 12.5737C21.7226 13.3536 19.3782 11.6177 18.15 9.64225C17.9675 9.34728 17.6301 8.54162 17.5696 8.33659C17.0933 6.71716 17.3123 4.26778 18.733 3C18.305 4.20561 18.2426 5.60583 18.4678 6.51618C18.6043 7.0665 19.0202 8.02745 19.4363 8.63184C20.1934 9.73277 20.6737 10.0003 21.6462 10.585C22.0844 10.8481 22.5543 11.0592 22.7573 11.1171C23.6795 11.3886 25.6263 12.1038 28.7648 9.96787Z" fill="#21609B"/>
</svg>
