<svg width="32" height="32" viewBox="0 0 32 32" fill="none" xmlns="http://www.w3.org/2000/svg">
<path d="M29 3H3V29H29V3Z" fill="#F7DF1E"/>
<path d="M20.536 23.698C21.0556 24.4712 21.7316 25.0395 22.9272 25.0395C23.9316 25.0395 24.5732 24.582 24.5732 23.9499C24.5732 23.1924 23.914 22.9241 22.8084 22.4834L22.2025 22.2465C20.4533 21.5674 19.2913 20.7166 19.2913 18.918C19.2913 17.2612 20.6764 16 22.8412 16C24.3824 16 25.4904 16.4888 26.2888 17.7687L24.4012 18.8732C23.9856 18.1941 23.5373 17.9266 22.8412 17.9266C22.1312 17.9266 21.6812 18.337 21.6812 18.8732C21.6812 19.5359 22.1316 19.8042 23.1716 20.2147L23.7776 20.4513C25.8372 21.2561 27 22.0767 27 23.9215C27 25.9104 25.2856 27 22.9833 27C20.7321 27 19.2778 26.0224 18.5661 24.741L20.536 23.698ZM11.9731 23.8894C12.3539 24.5051 12.7003 25.0257 13.5332 25.0257C14.3295 25.0257 14.8319 24.7417 14.8319 23.6376V16.1261H17.2559V23.6674C17.2559 25.9548 15.7843 26.9959 13.6363 26.9959C11.6955 26.9959 10.5716 26.0806 10 24.9781L11.9731 23.8894Z" fill="black"/>
</svg>
